<mxfile host="app.diagrams.net" modified="2024-05-11T16:35:06.689Z" agent="Mozilla/5.0 (Windows NT 10.0; Win64; x64) AppleWebKit/537.36 (KHTML, like Gecko) Chrome/124.0.0.0 Safari/537.36" etag="FV3cbbXaSjftdTilph83" version="24.3.1" type="github">
  <diagram id="R2lEEEUBdFMjLlhIrx00" name="Page-1">
    <mxGraphModel dx="1196" dy="624" grid="1" gridSize="10" guides="1" tooltips="1" connect="1" arrows="1" fold="1" page="1" pageScale="1" pageWidth="850" pageHeight="1100" math="0" shadow="0" extFonts="Permanent Marker^https://fonts.googleapis.com/css?family=Permanent+Marker">
      <root>
        <mxCell id="0" />
        <mxCell id="1" parent="0" />
        <mxCell id="X4uo6Cr84tS3N12ujo1E-25" value="Dental Asistant" style="shape=table;startSize=30;container=1;collapsible=1;childLayout=tableLayout;fixedRows=1;rowLines=0;fontStyle=1;align=center;resizeLast=1;html=1;rounded=1;labelBackgroundColor=none;fillColor=#B2C9AB;strokeColor=#788AA3;fontColor=#000000;" vertex="1" parent="1">
          <mxGeometry x="140" y="80" width="180" height="180" as="geometry" />
        </mxCell>
        <mxCell id="X4uo6Cr84tS3N12ujo1E-26" value="" style="shape=tableRow;horizontal=0;startSize=0;swimlaneHead=0;swimlaneBody=0;fillColor=none;collapsible=0;dropTarget=0;points=[[0,0.5],[1,0.5]];portConstraint=eastwest;top=0;left=0;right=0;bottom=1;rounded=0;labelBackgroundColor=none;strokeColor=#788AA3;fontColor=#020203;" vertex="1" parent="X4uo6Cr84tS3N12ujo1E-25">
          <mxGeometry y="30" width="180" height="30" as="geometry" />
        </mxCell>
        <mxCell id="X4uo6Cr84tS3N12ujo1E-27" value="PK" style="shape=partialRectangle;connectable=0;fillColor=none;top=0;left=0;bottom=0;right=0;fontStyle=1;overflow=hidden;whiteSpace=wrap;html=1;rounded=0;labelBackgroundColor=none;strokeColor=#788AA3;fontColor=#000000;" vertex="1" parent="X4uo6Cr84tS3N12ujo1E-26">
          <mxGeometry width="30" height="30" as="geometry">
            <mxRectangle width="30" height="30" as="alternateBounds" />
          </mxGeometry>
        </mxCell>
        <mxCell id="X4uo6Cr84tS3N12ujo1E-28" value="dental_id" style="shape=partialRectangle;connectable=0;fillColor=none;top=0;left=0;bottom=0;right=0;align=left;spacingLeft=6;fontStyle=5;overflow=hidden;whiteSpace=wrap;html=1;rounded=0;labelBackgroundColor=none;strokeColor=#788AA3;fontColor=#020203;" vertex="1" parent="X4uo6Cr84tS3N12ujo1E-26">
          <mxGeometry x="30" width="150" height="30" as="geometry">
            <mxRectangle width="150" height="30" as="alternateBounds" />
          </mxGeometry>
        </mxCell>
        <mxCell id="X4uo6Cr84tS3N12ujo1E-29" value="" style="shape=tableRow;horizontal=0;startSize=0;swimlaneHead=0;swimlaneBody=0;fillColor=none;collapsible=0;dropTarget=0;points=[[0,0.5],[1,0.5]];portConstraint=eastwest;top=0;left=0;right=0;bottom=0;rounded=0;labelBackgroundColor=none;strokeColor=#788AA3;fontColor=#46495D;" vertex="1" parent="X4uo6Cr84tS3N12ujo1E-25">
          <mxGeometry y="60" width="180" height="30" as="geometry" />
        </mxCell>
        <mxCell id="X4uo6Cr84tS3N12ujo1E-30" value="" style="shape=partialRectangle;connectable=0;fillColor=none;top=0;left=0;bottom=0;right=0;editable=1;overflow=hidden;whiteSpace=wrap;html=1;rounded=0;labelBackgroundColor=none;strokeColor=#788AA3;fontColor=#46495D;" vertex="1" parent="X4uo6Cr84tS3N12ujo1E-29">
          <mxGeometry width="30" height="30" as="geometry">
            <mxRectangle width="30" height="30" as="alternateBounds" />
          </mxGeometry>
        </mxCell>
        <mxCell id="X4uo6Cr84tS3N12ujo1E-31" value="name" style="shape=partialRectangle;connectable=0;fillColor=none;top=0;left=0;bottom=0;right=0;align=left;spacingLeft=6;overflow=hidden;whiteSpace=wrap;html=1;rounded=0;labelBackgroundColor=none;strokeColor=#788AA3;fontColor=#000000;" vertex="1" parent="X4uo6Cr84tS3N12ujo1E-29">
          <mxGeometry x="30" width="150" height="30" as="geometry">
            <mxRectangle width="150" height="30" as="alternateBounds" />
          </mxGeometry>
        </mxCell>
        <mxCell id="X4uo6Cr84tS3N12ujo1E-32" value="" style="shape=tableRow;horizontal=0;startSize=0;swimlaneHead=0;swimlaneBody=0;fillColor=none;collapsible=0;dropTarget=0;points=[[0,0.5],[1,0.5]];portConstraint=eastwest;top=0;left=0;right=0;bottom=0;rounded=0;labelBackgroundColor=none;strokeColor=#788AA3;fontColor=#46495D;" vertex="1" parent="X4uo6Cr84tS3N12ujo1E-25">
          <mxGeometry y="90" width="180" height="30" as="geometry" />
        </mxCell>
        <mxCell id="X4uo6Cr84tS3N12ujo1E-33" value="" style="shape=partialRectangle;connectable=0;fillColor=none;top=0;left=0;bottom=0;right=0;editable=1;overflow=hidden;whiteSpace=wrap;html=1;rounded=0;labelBackgroundColor=none;strokeColor=#788AA3;fontColor=#46495D;" vertex="1" parent="X4uo6Cr84tS3N12ujo1E-32">
          <mxGeometry width="30" height="30" as="geometry">
            <mxRectangle width="30" height="30" as="alternateBounds" />
          </mxGeometry>
        </mxCell>
        <mxCell id="X4uo6Cr84tS3N12ujo1E-34" value="ic_num" style="shape=partialRectangle;connectable=0;fillColor=none;top=0;left=0;bottom=0;right=0;align=left;spacingLeft=6;overflow=hidden;whiteSpace=wrap;html=1;rounded=0;labelBackgroundColor=none;strokeColor=#788AA3;fontColor=#000000;" vertex="1" parent="X4uo6Cr84tS3N12ujo1E-32">
          <mxGeometry x="30" width="150" height="30" as="geometry">
            <mxRectangle width="150" height="30" as="alternateBounds" />
          </mxGeometry>
        </mxCell>
        <mxCell id="X4uo6Cr84tS3N12ujo1E-35" value="" style="shape=tableRow;horizontal=0;startSize=0;swimlaneHead=0;swimlaneBody=0;fillColor=none;collapsible=0;dropTarget=0;points=[[0,0.5],[1,0.5]];portConstraint=eastwest;top=0;left=0;right=0;bottom=0;rounded=0;labelBackgroundColor=none;strokeColor=#788AA3;fontColor=#46495D;" vertex="1" parent="X4uo6Cr84tS3N12ujo1E-25">
          <mxGeometry y="120" width="180" height="30" as="geometry" />
        </mxCell>
        <mxCell id="X4uo6Cr84tS3N12ujo1E-36" value="" style="shape=partialRectangle;connectable=0;fillColor=none;top=0;left=0;bottom=0;right=0;editable=1;overflow=hidden;whiteSpace=wrap;html=1;rounded=0;labelBackgroundColor=none;strokeColor=#788AA3;fontColor=#46495D;" vertex="1" parent="X4uo6Cr84tS3N12ujo1E-35">
          <mxGeometry width="30" height="30" as="geometry">
            <mxRectangle width="30" height="30" as="alternateBounds" />
          </mxGeometry>
        </mxCell>
        <mxCell id="X4uo6Cr84tS3N12ujo1E-37" value="address" style="shape=partialRectangle;connectable=0;fillColor=none;top=0;left=0;bottom=0;right=0;align=left;spacingLeft=6;overflow=hidden;whiteSpace=wrap;html=1;rounded=0;labelBackgroundColor=none;strokeColor=#788AA3;fontColor=#020203;" vertex="1" parent="X4uo6Cr84tS3N12ujo1E-35">
          <mxGeometry x="30" width="150" height="30" as="geometry">
            <mxRectangle width="150" height="30" as="alternateBounds" />
          </mxGeometry>
        </mxCell>
        <mxCell id="X4uo6Cr84tS3N12ujo1E-38" value="" style="shape=tableRow;horizontal=0;startSize=0;swimlaneHead=0;swimlaneBody=0;fillColor=none;collapsible=0;dropTarget=0;points=[[0,0.5],[1,0.5]];portConstraint=eastwest;top=0;left=0;right=0;bottom=0;rounded=0;labelBackgroundColor=none;strokeColor=#788AA3;fontColor=#46495D;" vertex="1" parent="X4uo6Cr84tS3N12ujo1E-25">
          <mxGeometry y="150" width="180" height="30" as="geometry" />
        </mxCell>
        <mxCell id="X4uo6Cr84tS3N12ujo1E-39" value="" style="shape=partialRectangle;connectable=0;fillColor=none;top=0;left=0;bottom=0;right=0;editable=1;overflow=hidden;whiteSpace=wrap;html=1;rounded=0;labelBackgroundColor=none;strokeColor=#788AA3;fontColor=#46495D;" vertex="1" parent="X4uo6Cr84tS3N12ujo1E-38">
          <mxGeometry width="30" height="30" as="geometry">
            <mxRectangle width="30" height="30" as="alternateBounds" />
          </mxGeometry>
        </mxCell>
        <mxCell id="X4uo6Cr84tS3N12ujo1E-40" value="num_tel" style="shape=partialRectangle;connectable=0;fillColor=none;top=0;left=0;bottom=0;right=0;align=left;spacingLeft=6;overflow=hidden;whiteSpace=wrap;html=1;rounded=0;labelBackgroundColor=none;strokeColor=#788AA3;fontColor=#060608;" vertex="1" parent="X4uo6Cr84tS3N12ujo1E-38">
          <mxGeometry x="30" width="150" height="30" as="geometry">
            <mxRectangle width="150" height="30" as="alternateBounds" />
          </mxGeometry>
        </mxCell>
        <mxCell id="X4uo6Cr84tS3N12ujo1E-41" value="Dentist" style="shape=table;startSize=30;container=1;collapsible=1;childLayout=tableLayout;fixedRows=1;rowLines=0;fontStyle=1;align=center;resizeLast=1;html=1;rounded=1;labelBackgroundColor=none;fillColor=#B2C9AB;strokeColor=#788AA3;fontColor=#000000;" vertex="1" parent="1">
          <mxGeometry x="500" y="80" width="180" height="210" as="geometry" />
        </mxCell>
        <mxCell id="X4uo6Cr84tS3N12ujo1E-42" value="" style="shape=tableRow;horizontal=0;startSize=0;swimlaneHead=0;swimlaneBody=0;fillColor=none;collapsible=0;dropTarget=0;points=[[0,0.5],[1,0.5]];portConstraint=eastwest;top=0;left=0;right=0;bottom=1;rounded=0;labelBackgroundColor=none;strokeColor=#788AA3;fontColor=#46495D;" vertex="1" parent="X4uo6Cr84tS3N12ujo1E-41">
          <mxGeometry y="30" width="180" height="30" as="geometry" />
        </mxCell>
        <mxCell id="X4uo6Cr84tS3N12ujo1E-43" value="PK" style="shape=partialRectangle;connectable=0;fillColor=none;top=0;left=0;bottom=0;right=0;fontStyle=1;overflow=hidden;whiteSpace=wrap;html=1;rounded=0;labelBackgroundColor=none;strokeColor=#788AA3;fontColor=#020203;" vertex="1" parent="X4uo6Cr84tS3N12ujo1E-42">
          <mxGeometry width="30" height="30" as="geometry">
            <mxRectangle width="30" height="30" as="alternateBounds" />
          </mxGeometry>
        </mxCell>
        <mxCell id="X4uo6Cr84tS3N12ujo1E-44" value="doctor_id" style="shape=partialRectangle;connectable=0;fillColor=none;top=0;left=0;bottom=0;right=0;align=left;spacingLeft=6;fontStyle=5;overflow=hidden;whiteSpace=wrap;html=1;rounded=0;labelBackgroundColor=none;strokeColor=#788AA3;fontColor=#0C0C0F;" vertex="1" parent="X4uo6Cr84tS3N12ujo1E-42">
          <mxGeometry x="30" width="150" height="30" as="geometry">
            <mxRectangle width="150" height="30" as="alternateBounds" />
          </mxGeometry>
        </mxCell>
        <mxCell id="X4uo6Cr84tS3N12ujo1E-45" value="" style="shape=tableRow;horizontal=0;startSize=0;swimlaneHead=0;swimlaneBody=0;fillColor=none;collapsible=0;dropTarget=0;points=[[0,0.5],[1,0.5]];portConstraint=eastwest;top=0;left=0;right=0;bottom=0;rounded=0;labelBackgroundColor=none;strokeColor=#788AA3;fontColor=#46495D;" vertex="1" parent="X4uo6Cr84tS3N12ujo1E-41">
          <mxGeometry y="60" width="180" height="30" as="geometry" />
        </mxCell>
        <mxCell id="X4uo6Cr84tS3N12ujo1E-46" value="" style="shape=partialRectangle;connectable=0;fillColor=none;top=0;left=0;bottom=0;right=0;editable=1;overflow=hidden;whiteSpace=wrap;html=1;rounded=0;labelBackgroundColor=none;strokeColor=#788AA3;fontColor=#46495D;" vertex="1" parent="X4uo6Cr84tS3N12ujo1E-45">
          <mxGeometry width="30" height="30" as="geometry">
            <mxRectangle width="30" height="30" as="alternateBounds" />
          </mxGeometry>
        </mxCell>
        <mxCell id="X4uo6Cr84tS3N12ujo1E-47" value="name" style="shape=partialRectangle;connectable=0;fillColor=none;top=0;left=0;bottom=0;right=0;align=left;spacingLeft=6;overflow=hidden;whiteSpace=wrap;html=1;rounded=0;labelBackgroundColor=none;strokeColor=#788AA3;fontColor=#000000;" vertex="1" parent="X4uo6Cr84tS3N12ujo1E-45">
          <mxGeometry x="30" width="150" height="30" as="geometry">
            <mxRectangle width="150" height="30" as="alternateBounds" />
          </mxGeometry>
        </mxCell>
        <mxCell id="X4uo6Cr84tS3N12ujo1E-48" value="" style="shape=tableRow;horizontal=0;startSize=0;swimlaneHead=0;swimlaneBody=0;fillColor=none;collapsible=0;dropTarget=0;points=[[0,0.5],[1,0.5]];portConstraint=eastwest;top=0;left=0;right=0;bottom=0;rounded=0;labelBackgroundColor=none;strokeColor=#788AA3;fontColor=#46495D;" vertex="1" parent="X4uo6Cr84tS3N12ujo1E-41">
          <mxGeometry y="90" width="180" height="30" as="geometry" />
        </mxCell>
        <mxCell id="X4uo6Cr84tS3N12ujo1E-49" value="" style="shape=partialRectangle;connectable=0;fillColor=none;top=0;left=0;bottom=0;right=0;editable=1;overflow=hidden;whiteSpace=wrap;html=1;rounded=0;labelBackgroundColor=none;strokeColor=#788AA3;fontColor=#46495D;" vertex="1" parent="X4uo6Cr84tS3N12ujo1E-48">
          <mxGeometry width="30" height="30" as="geometry">
            <mxRectangle width="30" height="30" as="alternateBounds" />
          </mxGeometry>
        </mxCell>
        <mxCell id="X4uo6Cr84tS3N12ujo1E-50" value="doc_IcNum" style="shape=partialRectangle;connectable=0;fillColor=none;top=0;left=0;bottom=0;right=0;align=left;spacingLeft=6;overflow=hidden;whiteSpace=wrap;html=1;rounded=0;labelBackgroundColor=none;strokeColor=#788AA3;fontColor=#020203;" vertex="1" parent="X4uo6Cr84tS3N12ujo1E-48">
          <mxGeometry x="30" width="150" height="30" as="geometry">
            <mxRectangle width="150" height="30" as="alternateBounds" />
          </mxGeometry>
        </mxCell>
        <mxCell id="X4uo6Cr84tS3N12ujo1E-51" value="" style="shape=tableRow;horizontal=0;startSize=0;swimlaneHead=0;swimlaneBody=0;fillColor=none;collapsible=0;dropTarget=0;points=[[0,0.5],[1,0.5]];portConstraint=eastwest;top=0;left=0;right=0;bottom=0;rounded=0;labelBackgroundColor=none;strokeColor=#788AA3;fontColor=#46495D;" vertex="1" parent="X4uo6Cr84tS3N12ujo1E-41">
          <mxGeometry y="120" width="180" height="30" as="geometry" />
        </mxCell>
        <mxCell id="X4uo6Cr84tS3N12ujo1E-52" value="" style="shape=partialRectangle;connectable=0;fillColor=none;top=0;left=0;bottom=0;right=0;editable=1;overflow=hidden;whiteSpace=wrap;html=1;rounded=0;labelBackgroundColor=none;strokeColor=#788AA3;fontColor=#46495D;" vertex="1" parent="X4uo6Cr84tS3N12ujo1E-51">
          <mxGeometry width="30" height="30" as="geometry">
            <mxRectangle width="30" height="30" as="alternateBounds" />
          </mxGeometry>
        </mxCell>
        <mxCell id="X4uo6Cr84tS3N12ujo1E-53" value="doc_address" style="shape=partialRectangle;connectable=0;fillColor=none;top=0;left=0;bottom=0;right=0;align=left;spacingLeft=6;overflow=hidden;whiteSpace=wrap;html=1;rounded=0;labelBackgroundColor=none;strokeColor=#788AA3;fontColor=#060608;" vertex="1" parent="X4uo6Cr84tS3N12ujo1E-51">
          <mxGeometry x="30" width="150" height="30" as="geometry">
            <mxRectangle width="150" height="30" as="alternateBounds" />
          </mxGeometry>
        </mxCell>
        <mxCell id="X4uo6Cr84tS3N12ujo1E-54" value="" style="shape=tableRow;horizontal=0;startSize=0;swimlaneHead=0;swimlaneBody=0;fillColor=none;collapsible=0;dropTarget=0;points=[[0,0.5],[1,0.5]];portConstraint=eastwest;top=0;left=0;right=0;bottom=0;rounded=0;labelBackgroundColor=none;strokeColor=#788AA3;fontColor=#46495D;" vertex="1" parent="X4uo6Cr84tS3N12ujo1E-41">
          <mxGeometry y="150" width="180" height="30" as="geometry" />
        </mxCell>
        <mxCell id="X4uo6Cr84tS3N12ujo1E-55" value="" style="shape=partialRectangle;connectable=0;fillColor=none;top=0;left=0;bottom=0;right=0;editable=1;overflow=hidden;whiteSpace=wrap;html=1;rounded=0;labelBackgroundColor=none;strokeColor=#788AA3;fontColor=#46495D;" vertex="1" parent="X4uo6Cr84tS3N12ujo1E-54">
          <mxGeometry width="30" height="30" as="geometry">
            <mxRectangle width="30" height="30" as="alternateBounds" />
          </mxGeometry>
        </mxCell>
        <mxCell id="X4uo6Cr84tS3N12ujo1E-56" value="doc_noTel" style="shape=partialRectangle;connectable=0;fillColor=none;top=0;left=0;bottom=0;right=0;align=left;spacingLeft=6;overflow=hidden;whiteSpace=wrap;html=1;rounded=0;labelBackgroundColor=none;strokeColor=#788AA3;fontColor=#000000;" vertex="1" parent="X4uo6Cr84tS3N12ujo1E-54">
          <mxGeometry x="30" width="150" height="30" as="geometry">
            <mxRectangle width="150" height="30" as="alternateBounds" />
          </mxGeometry>
        </mxCell>
        <mxCell id="X4uo6Cr84tS3N12ujo1E-57" value="" style="shape=tableRow;horizontal=0;startSize=0;swimlaneHead=0;swimlaneBody=0;fillColor=none;collapsible=0;dropTarget=0;points=[[0,0.5],[1,0.5]];portConstraint=eastwest;top=0;left=0;right=0;bottom=0;rounded=0;labelBackgroundColor=none;strokeColor=#788AA3;fontColor=#000000;" vertex="1" parent="X4uo6Cr84tS3N12ujo1E-41">
          <mxGeometry y="180" width="180" height="30" as="geometry" />
        </mxCell>
        <mxCell id="X4uo6Cr84tS3N12ujo1E-58" value="FK" style="shape=partialRectangle;connectable=0;fillColor=none;top=0;left=0;bottom=0;right=0;editable=1;overflow=hidden;whiteSpace=wrap;html=1;rounded=0;labelBackgroundColor=none;strokeColor=#788AA3;fontColor=#020203;" vertex="1" parent="X4uo6Cr84tS3N12ujo1E-57">
          <mxGeometry width="30" height="30" as="geometry">
            <mxRectangle width="30" height="30" as="alternateBounds" />
          </mxGeometry>
        </mxCell>
        <mxCell id="X4uo6Cr84tS3N12ujo1E-59" value="dental_id" style="shape=partialRectangle;connectable=0;fillColor=none;top=0;left=0;bottom=0;right=0;align=left;spacingLeft=6;overflow=hidden;whiteSpace=wrap;html=1;rounded=0;labelBackgroundColor=none;strokeColor=#788AA3;fontColor=#060608;" vertex="1" parent="X4uo6Cr84tS3N12ujo1E-57">
          <mxGeometry x="30" width="150" height="30" as="geometry">
            <mxRectangle width="150" height="30" as="alternateBounds" />
          </mxGeometry>
        </mxCell>
        <mxCell id="X4uo6Cr84tS3N12ujo1E-60" value="Patient" style="shape=table;startSize=30;container=1;collapsible=1;childLayout=tableLayout;fixedRows=1;rowLines=0;fontStyle=1;align=center;resizeLast=1;html=1;rounded=1;labelBackgroundColor=none;fillColor=#B2C9AB;strokeColor=#788AA3;fontColor=#000000;" vertex="1" parent="1">
          <mxGeometry x="500" y="360" width="180" height="360" as="geometry" />
        </mxCell>
        <mxCell id="X4uo6Cr84tS3N12ujo1E-61" value="" style="shape=tableRow;horizontal=0;startSize=0;swimlaneHead=0;swimlaneBody=0;fillColor=none;collapsible=0;dropTarget=0;points=[[0,0.5],[1,0.5]];portConstraint=eastwest;top=0;left=0;right=0;bottom=1;rounded=0;labelBackgroundColor=none;strokeColor=#788AA3;fontColor=#46495D;" vertex="1" parent="X4uo6Cr84tS3N12ujo1E-60">
          <mxGeometry y="30" width="180" height="30" as="geometry" />
        </mxCell>
        <mxCell id="X4uo6Cr84tS3N12ujo1E-62" value="PK" style="shape=partialRectangle;connectable=0;fillColor=none;top=0;left=0;bottom=0;right=0;fontStyle=1;overflow=hidden;whiteSpace=wrap;html=1;rounded=0;labelBackgroundColor=none;strokeColor=#788AA3;fontColor=#020203;" vertex="1" parent="X4uo6Cr84tS3N12ujo1E-61">
          <mxGeometry width="30" height="30" as="geometry">
            <mxRectangle width="30" height="30" as="alternateBounds" />
          </mxGeometry>
        </mxCell>
        <mxCell id="X4uo6Cr84tS3N12ujo1E-63" value="turn_no" style="shape=partialRectangle;connectable=0;fillColor=none;top=0;left=0;bottom=0;right=0;align=left;spacingLeft=6;fontStyle=5;overflow=hidden;whiteSpace=wrap;html=1;rounded=0;labelBackgroundColor=none;strokeColor=#788AA3;fontColor=#000000;" vertex="1" parent="X4uo6Cr84tS3N12ujo1E-61">
          <mxGeometry x="30" width="150" height="30" as="geometry">
            <mxRectangle width="150" height="30" as="alternateBounds" />
          </mxGeometry>
        </mxCell>
        <mxCell id="X4uo6Cr84tS3N12ujo1E-64" value="" style="shape=tableRow;horizontal=0;startSize=0;swimlaneHead=0;swimlaneBody=0;fillColor=none;collapsible=0;dropTarget=0;points=[[0,0.5],[1,0.5]];portConstraint=eastwest;top=0;left=0;right=0;bottom=0;rounded=0;labelBackgroundColor=none;strokeColor=#788AA3;fontColor=#46495D;" vertex="1" parent="X4uo6Cr84tS3N12ujo1E-60">
          <mxGeometry y="60" width="180" height="30" as="geometry" />
        </mxCell>
        <mxCell id="X4uo6Cr84tS3N12ujo1E-65" value="" style="shape=partialRectangle;connectable=0;fillColor=none;top=0;left=0;bottom=0;right=0;editable=1;overflow=hidden;whiteSpace=wrap;html=1;rounded=0;labelBackgroundColor=none;strokeColor=#788AA3;fontColor=#46495D;" vertex="1" parent="X4uo6Cr84tS3N12ujo1E-64">
          <mxGeometry width="30" height="30" as="geometry">
            <mxRectangle width="30" height="30" as="alternateBounds" />
          </mxGeometry>
        </mxCell>
        <mxCell id="X4uo6Cr84tS3N12ujo1E-66" value="patient_name" style="shape=partialRectangle;connectable=0;fillColor=none;top=0;left=0;bottom=0;right=0;align=left;spacingLeft=6;overflow=hidden;whiteSpace=wrap;html=1;rounded=0;labelBackgroundColor=none;strokeColor=#788AA3;fontColor=#040405;" vertex="1" parent="X4uo6Cr84tS3N12ujo1E-64">
          <mxGeometry x="30" width="150" height="30" as="geometry">
            <mxRectangle width="150" height="30" as="alternateBounds" />
          </mxGeometry>
        </mxCell>
        <mxCell id="X4uo6Cr84tS3N12ujo1E-67" value="" style="shape=tableRow;horizontal=0;startSize=0;swimlaneHead=0;swimlaneBody=0;fillColor=none;collapsible=0;dropTarget=0;points=[[0,0.5],[1,0.5]];portConstraint=eastwest;top=0;left=0;right=0;bottom=0;rounded=0;labelBackgroundColor=none;strokeColor=#788AA3;fontColor=#46495D;" vertex="1" parent="X4uo6Cr84tS3N12ujo1E-60">
          <mxGeometry y="90" width="180" height="30" as="geometry" />
        </mxCell>
        <mxCell id="X4uo6Cr84tS3N12ujo1E-68" value="" style="shape=partialRectangle;connectable=0;fillColor=none;top=0;left=0;bottom=0;right=0;editable=1;overflow=hidden;whiteSpace=wrap;html=1;rounded=0;labelBackgroundColor=none;strokeColor=#788AA3;fontColor=#46495D;" vertex="1" parent="X4uo6Cr84tS3N12ujo1E-67">
          <mxGeometry width="30" height="30" as="geometry">
            <mxRectangle width="30" height="30" as="alternateBounds" />
          </mxGeometry>
        </mxCell>
        <mxCell id="X4uo6Cr84tS3N12ujo1E-69" value="patient_IcNum" style="shape=partialRectangle;connectable=0;fillColor=none;top=0;left=0;bottom=0;right=0;align=left;spacingLeft=6;overflow=hidden;whiteSpace=wrap;html=1;rounded=0;labelBackgroundColor=none;strokeColor=#788AA3;fontColor=#000000;" vertex="1" parent="X4uo6Cr84tS3N12ujo1E-67">
          <mxGeometry x="30" width="150" height="30" as="geometry">
            <mxRectangle width="150" height="30" as="alternateBounds" />
          </mxGeometry>
        </mxCell>
        <mxCell id="X4uo6Cr84tS3N12ujo1E-70" value="" style="shape=tableRow;horizontal=0;startSize=0;swimlaneHead=0;swimlaneBody=0;fillColor=none;collapsible=0;dropTarget=0;points=[[0,0.5],[1,0.5]];portConstraint=eastwest;top=0;left=0;right=0;bottom=0;rounded=0;labelBackgroundColor=none;strokeColor=#788AA3;fontColor=#46495D;" vertex="1" parent="X4uo6Cr84tS3N12ujo1E-60">
          <mxGeometry y="120" width="180" height="30" as="geometry" />
        </mxCell>
        <mxCell id="X4uo6Cr84tS3N12ujo1E-71" value="" style="shape=partialRectangle;connectable=0;fillColor=none;top=0;left=0;bottom=0;right=0;editable=1;overflow=hidden;whiteSpace=wrap;html=1;rounded=0;labelBackgroundColor=none;strokeColor=#788AA3;fontColor=#46495D;" vertex="1" parent="X4uo6Cr84tS3N12ujo1E-70">
          <mxGeometry width="30" height="30" as="geometry">
            <mxRectangle width="30" height="30" as="alternateBounds" />
          </mxGeometry>
        </mxCell>
        <mxCell id="X4uo6Cr84tS3N12ujo1E-72" value="patient_DOB" style="shape=partialRectangle;connectable=0;fillColor=none;top=0;left=0;bottom=0;right=0;align=left;spacingLeft=6;overflow=hidden;whiteSpace=wrap;html=1;rounded=0;labelBackgroundColor=none;strokeColor=#788AA3;fontColor=#000000;" vertex="1" parent="X4uo6Cr84tS3N12ujo1E-70">
          <mxGeometry x="30" width="150" height="30" as="geometry">
            <mxRectangle width="150" height="30" as="alternateBounds" />
          </mxGeometry>
        </mxCell>
        <mxCell id="X4uo6Cr84tS3N12ujo1E-73" value="" style="shape=tableRow;horizontal=0;startSize=0;swimlaneHead=0;swimlaneBody=0;fillColor=none;collapsible=0;dropTarget=0;points=[[0,0.5],[1,0.5]];portConstraint=eastwest;top=0;left=0;right=0;bottom=0;rounded=0;labelBackgroundColor=none;strokeColor=#788AA3;fontColor=#46495D;" vertex="1" parent="X4uo6Cr84tS3N12ujo1E-60">
          <mxGeometry y="150" width="180" height="30" as="geometry" />
        </mxCell>
        <mxCell id="X4uo6Cr84tS3N12ujo1E-74" value="" style="shape=partialRectangle;connectable=0;fillColor=none;top=0;left=0;bottom=0;right=0;editable=1;overflow=hidden;whiteSpace=wrap;html=1;rounded=0;labelBackgroundColor=none;strokeColor=#788AA3;fontColor=#46495D;" vertex="1" parent="X4uo6Cr84tS3N12ujo1E-73">
          <mxGeometry width="30" height="30" as="geometry">
            <mxRectangle width="30" height="30" as="alternateBounds" />
          </mxGeometry>
        </mxCell>
        <mxCell id="X4uo6Cr84tS3N12ujo1E-75" value="patient_address" style="shape=partialRectangle;connectable=0;fillColor=none;top=0;left=0;bottom=0;right=0;align=left;spacingLeft=6;overflow=hidden;whiteSpace=wrap;html=1;rounded=0;labelBackgroundColor=none;strokeColor=#788AA3;fontColor=#000000;" vertex="1" parent="X4uo6Cr84tS3N12ujo1E-73">
          <mxGeometry x="30" width="150" height="30" as="geometry">
            <mxRectangle width="150" height="30" as="alternateBounds" />
          </mxGeometry>
        </mxCell>
        <mxCell id="X4uo6Cr84tS3N12ujo1E-76" value="" style="shape=tableRow;horizontal=0;startSize=0;swimlaneHead=0;swimlaneBody=0;fillColor=none;collapsible=0;dropTarget=0;points=[[0,0.5],[1,0.5]];portConstraint=eastwest;top=0;left=0;right=0;bottom=0;rounded=0;labelBackgroundColor=none;strokeColor=#788AA3;fontColor=#46495D;" vertex="1" parent="X4uo6Cr84tS3N12ujo1E-60">
          <mxGeometry y="180" width="180" height="30" as="geometry" />
        </mxCell>
        <mxCell id="X4uo6Cr84tS3N12ujo1E-77" value="" style="shape=partialRectangle;connectable=0;fillColor=none;top=0;left=0;bottom=0;right=0;editable=1;overflow=hidden;whiteSpace=wrap;html=1;rounded=0;labelBackgroundColor=none;strokeColor=#788AA3;fontColor=#46495D;" vertex="1" parent="X4uo6Cr84tS3N12ujo1E-76">
          <mxGeometry width="30" height="30" as="geometry">
            <mxRectangle width="30" height="30" as="alternateBounds" />
          </mxGeometry>
        </mxCell>
        <mxCell id="X4uo6Cr84tS3N12ujo1E-78" value="patient_noTel" style="shape=partialRectangle;connectable=0;fillColor=none;top=0;left=0;bottom=0;right=0;align=left;spacingLeft=6;overflow=hidden;whiteSpace=wrap;html=1;rounded=0;labelBackgroundColor=none;strokeColor=#788AA3;fontColor=#000000;" vertex="1" parent="X4uo6Cr84tS3N12ujo1E-76">
          <mxGeometry x="30" width="150" height="30" as="geometry">
            <mxRectangle width="150" height="30" as="alternateBounds" />
          </mxGeometry>
        </mxCell>
        <mxCell id="X4uo6Cr84tS3N12ujo1E-79" value="" style="shape=tableRow;horizontal=0;startSize=0;swimlaneHead=0;swimlaneBody=0;fillColor=none;collapsible=0;dropTarget=0;points=[[0,0.5],[1,0.5]];portConstraint=eastwest;top=0;left=0;right=0;bottom=0;rounded=0;labelBackgroundColor=none;strokeColor=#788AA3;fontColor=#46495D;" vertex="1" parent="X4uo6Cr84tS3N12ujo1E-60">
          <mxGeometry y="210" width="180" height="30" as="geometry" />
        </mxCell>
        <mxCell id="X4uo6Cr84tS3N12ujo1E-80" value="" style="shape=partialRectangle;connectable=0;fillColor=none;top=0;left=0;bottom=0;right=0;editable=1;overflow=hidden;whiteSpace=wrap;html=1;rounded=0;labelBackgroundColor=none;strokeColor=#788AA3;fontColor=#46495D;" vertex="1" parent="X4uo6Cr84tS3N12ujo1E-79">
          <mxGeometry width="30" height="30" as="geometry">
            <mxRectangle width="30" height="30" as="alternateBounds" />
          </mxGeometry>
        </mxCell>
        <mxCell id="X4uo6Cr84tS3N12ujo1E-81" value="treatment_type" style="shape=partialRectangle;connectable=0;fillColor=none;top=0;left=0;bottom=0;right=0;align=left;spacingLeft=6;overflow=hidden;whiteSpace=wrap;html=1;rounded=0;labelBackgroundColor=none;strokeColor=#788AA3;fontColor=#000000;" vertex="1" parent="X4uo6Cr84tS3N12ujo1E-79">
          <mxGeometry x="30" width="150" height="30" as="geometry">
            <mxRectangle width="150" height="30" as="alternateBounds" />
          </mxGeometry>
        </mxCell>
        <mxCell id="X4uo6Cr84tS3N12ujo1E-82" value="" style="shape=tableRow;horizontal=0;startSize=0;swimlaneHead=0;swimlaneBody=0;fillColor=none;collapsible=0;dropTarget=0;points=[[0,0.5],[1,0.5]];portConstraint=eastwest;top=0;left=0;right=0;bottom=0;rounded=0;labelBackgroundColor=none;strokeColor=#788AA3;fontColor=#46495D;" vertex="1" parent="X4uo6Cr84tS3N12ujo1E-60">
          <mxGeometry y="240" width="180" height="30" as="geometry" />
        </mxCell>
        <mxCell id="X4uo6Cr84tS3N12ujo1E-83" value="FK" style="shape=partialRectangle;connectable=0;fillColor=none;top=0;left=0;bottom=0;right=0;editable=1;overflow=hidden;whiteSpace=wrap;html=1;rounded=0;labelBackgroundColor=none;strokeColor=#788AA3;fontColor=#000000;" vertex="1" parent="X4uo6Cr84tS3N12ujo1E-82">
          <mxGeometry width="30" height="30" as="geometry">
            <mxRectangle width="30" height="30" as="alternateBounds" />
          </mxGeometry>
        </mxCell>
        <mxCell id="X4uo6Cr84tS3N12ujo1E-84" value="doctor_id" style="shape=partialRectangle;connectable=0;fillColor=none;top=0;left=0;bottom=0;right=0;align=left;spacingLeft=6;overflow=hidden;whiteSpace=wrap;html=1;rounded=0;labelBackgroundColor=none;strokeColor=#788AA3;fontColor=#000000;" vertex="1" parent="X4uo6Cr84tS3N12ujo1E-82">
          <mxGeometry x="30" width="150" height="30" as="geometry">
            <mxRectangle width="150" height="30" as="alternateBounds" />
          </mxGeometry>
        </mxCell>
        <mxCell id="X4uo6Cr84tS3N12ujo1E-85" value="" style="shape=tableRow;horizontal=0;startSize=0;swimlaneHead=0;swimlaneBody=0;fillColor=none;collapsible=0;dropTarget=0;points=[[0,0.5],[1,0.5]];portConstraint=eastwest;top=0;left=0;right=0;bottom=0;rounded=0;labelBackgroundColor=none;strokeColor=#788AA3;fontColor=#46495D;" vertex="1" parent="X4uo6Cr84tS3N12ujo1E-60">
          <mxGeometry y="270" width="180" height="30" as="geometry" />
        </mxCell>
        <mxCell id="X4uo6Cr84tS3N12ujo1E-86" value="FK" style="shape=partialRectangle;connectable=0;fillColor=none;top=0;left=0;bottom=0;right=0;editable=1;overflow=hidden;whiteSpace=wrap;html=1;rounded=0;labelBackgroundColor=none;strokeColor=#788AA3;fontColor=#000000;" vertex="1" parent="X4uo6Cr84tS3N12ujo1E-85">
          <mxGeometry width="30" height="30" as="geometry">
            <mxRectangle width="30" height="30" as="alternateBounds" />
          </mxGeometry>
        </mxCell>
        <mxCell id="X4uo6Cr84tS3N12ujo1E-87" value="dental_id" style="shape=partialRectangle;connectable=0;fillColor=none;top=0;left=0;bottom=0;right=0;align=left;spacingLeft=6;overflow=hidden;whiteSpace=wrap;html=1;rounded=0;labelBackgroundColor=none;strokeColor=#788AA3;fontColor=#000000;" vertex="1" parent="X4uo6Cr84tS3N12ujo1E-85">
          <mxGeometry x="30" width="150" height="30" as="geometry">
            <mxRectangle width="150" height="30" as="alternateBounds" />
          </mxGeometry>
        </mxCell>
        <mxCell id="X4uo6Cr84tS3N12ujo1E-88" value="" style="shape=tableRow;horizontal=0;startSize=0;swimlaneHead=0;swimlaneBody=0;fillColor=none;collapsible=0;dropTarget=0;points=[[0,0.5],[1,0.5]];portConstraint=eastwest;top=0;left=0;right=0;bottom=0;rounded=0;labelBackgroundColor=none;strokeColor=#788AA3;fontColor=#46495D;" vertex="1" parent="X4uo6Cr84tS3N12ujo1E-60">
          <mxGeometry y="300" width="180" height="30" as="geometry" />
        </mxCell>
        <mxCell id="X4uo6Cr84tS3N12ujo1E-89" value="" style="shape=partialRectangle;connectable=0;fillColor=none;top=0;left=0;bottom=0;right=0;editable=1;overflow=hidden;whiteSpace=wrap;html=1;rounded=0;labelBackgroundColor=none;strokeColor=#788AA3;fontColor=#46495D;" vertex="1" parent="X4uo6Cr84tS3N12ujo1E-88">
          <mxGeometry width="30" height="30" as="geometry">
            <mxRectangle width="30" height="30" as="alternateBounds" />
          </mxGeometry>
        </mxCell>
        <mxCell id="X4uo6Cr84tS3N12ujo1E-90" value="medicine" style="shape=partialRectangle;connectable=0;fillColor=none;top=0;left=0;bottom=0;right=0;align=left;spacingLeft=6;overflow=hidden;whiteSpace=wrap;html=1;rounded=0;labelBackgroundColor=none;strokeColor=#788AA3;fontColor=#000000;" vertex="1" parent="X4uo6Cr84tS3N12ujo1E-88">
          <mxGeometry x="30" width="150" height="30" as="geometry">
            <mxRectangle width="150" height="30" as="alternateBounds" />
          </mxGeometry>
        </mxCell>
        <mxCell id="X4uo6Cr84tS3N12ujo1E-91" value="" style="shape=tableRow;horizontal=0;startSize=0;swimlaneHead=0;swimlaneBody=0;fillColor=none;collapsible=0;dropTarget=0;points=[[0,0.5],[1,0.5]];portConstraint=eastwest;top=0;left=0;right=0;bottom=0;rounded=0;labelBackgroundColor=none;strokeColor=#788AA3;fontColor=#46495D;" vertex="1" parent="X4uo6Cr84tS3N12ujo1E-60">
          <mxGeometry y="330" width="180" height="30" as="geometry" />
        </mxCell>
        <mxCell id="X4uo6Cr84tS3N12ujo1E-92" value="FK" style="shape=partialRectangle;connectable=0;fillColor=none;top=0;left=0;bottom=0;right=0;editable=1;overflow=hidden;whiteSpace=wrap;html=1;rounded=0;labelBackgroundColor=none;strokeColor=#788AA3;fontColor=#000000;" vertex="1" parent="X4uo6Cr84tS3N12ujo1E-91">
          <mxGeometry width="30" height="30" as="geometry">
            <mxRectangle width="30" height="30" as="alternateBounds" />
          </mxGeometry>
        </mxCell>
        <mxCell id="X4uo6Cr84tS3N12ujo1E-93" value="staff_id" style="shape=partialRectangle;connectable=0;fillColor=none;top=0;left=0;bottom=0;right=0;align=left;spacingLeft=6;overflow=hidden;whiteSpace=wrap;html=1;rounded=0;labelBackgroundColor=none;strokeColor=#788AA3;fontColor=#000000;" vertex="1" parent="X4uo6Cr84tS3N12ujo1E-91">
          <mxGeometry x="30" width="150" height="30" as="geometry">
            <mxRectangle width="150" height="30" as="alternateBounds" />
          </mxGeometry>
        </mxCell>
        <mxCell id="X4uo6Cr84tS3N12ujo1E-94" value="Staff" style="shape=table;startSize=30;container=1;collapsible=1;childLayout=tableLayout;fixedRows=1;rowLines=0;fontStyle=1;align=center;resizeLast=1;html=1;rounded=1;labelBackgroundColor=none;fillColor=#B2C9AB;strokeColor=#788AA3;fontColor=#000000;" vertex="1" parent="1">
          <mxGeometry x="140" y="680" width="180" height="180" as="geometry" />
        </mxCell>
        <mxCell id="X4uo6Cr84tS3N12ujo1E-95" value="" style="shape=tableRow;horizontal=0;startSize=0;swimlaneHead=0;swimlaneBody=0;fillColor=none;collapsible=0;dropTarget=0;points=[[0,0.5],[1,0.5]];portConstraint=eastwest;top=0;left=0;right=0;bottom=1;rounded=0;labelBackgroundColor=none;strokeColor=#788AA3;fontColor=#46495D;" vertex="1" parent="X4uo6Cr84tS3N12ujo1E-94">
          <mxGeometry y="30" width="180" height="30" as="geometry" />
        </mxCell>
        <mxCell id="X4uo6Cr84tS3N12ujo1E-96" value="PK" style="shape=partialRectangle;connectable=0;fillColor=none;top=0;left=0;bottom=0;right=0;fontStyle=1;overflow=hidden;whiteSpace=wrap;html=1;rounded=0;labelBackgroundColor=none;strokeColor=#788AA3;fontColor=#000000;" vertex="1" parent="X4uo6Cr84tS3N12ujo1E-95">
          <mxGeometry width="30" height="30" as="geometry">
            <mxRectangle width="30" height="30" as="alternateBounds" />
          </mxGeometry>
        </mxCell>
        <mxCell id="X4uo6Cr84tS3N12ujo1E-97" value="staff_id" style="shape=partialRectangle;connectable=0;fillColor=none;top=0;left=0;bottom=0;right=0;align=left;spacingLeft=6;fontStyle=5;overflow=hidden;whiteSpace=wrap;html=1;rounded=0;labelBackgroundColor=none;strokeColor=#788AA3;fontColor=#000000;" vertex="1" parent="X4uo6Cr84tS3N12ujo1E-95">
          <mxGeometry x="30" width="150" height="30" as="geometry">
            <mxRectangle width="150" height="30" as="alternateBounds" />
          </mxGeometry>
        </mxCell>
        <mxCell id="X4uo6Cr84tS3N12ujo1E-98" value="" style="shape=tableRow;horizontal=0;startSize=0;swimlaneHead=0;swimlaneBody=0;fillColor=none;collapsible=0;dropTarget=0;points=[[0,0.5],[1,0.5]];portConstraint=eastwest;top=0;left=0;right=0;bottom=0;rounded=0;labelBackgroundColor=none;strokeColor=#788AA3;fontColor=#46495D;" vertex="1" parent="X4uo6Cr84tS3N12ujo1E-94">
          <mxGeometry y="60" width="180" height="30" as="geometry" />
        </mxCell>
        <mxCell id="X4uo6Cr84tS3N12ujo1E-99" value="" style="shape=partialRectangle;connectable=0;fillColor=none;top=0;left=0;bottom=0;right=0;editable=1;overflow=hidden;whiteSpace=wrap;html=1;rounded=0;labelBackgroundColor=none;strokeColor=#788AA3;fontColor=#46495D;" vertex="1" parent="X4uo6Cr84tS3N12ujo1E-98">
          <mxGeometry width="30" height="30" as="geometry">
            <mxRectangle width="30" height="30" as="alternateBounds" />
          </mxGeometry>
        </mxCell>
        <mxCell id="X4uo6Cr84tS3N12ujo1E-100" value="staff_name" style="shape=partialRectangle;connectable=0;fillColor=none;top=0;left=0;bottom=0;right=0;align=left;spacingLeft=6;overflow=hidden;whiteSpace=wrap;html=1;rounded=0;labelBackgroundColor=none;strokeColor=#788AA3;fontColor=#000000;" vertex="1" parent="X4uo6Cr84tS3N12ujo1E-98">
          <mxGeometry x="30" width="150" height="30" as="geometry">
            <mxRectangle width="150" height="30" as="alternateBounds" />
          </mxGeometry>
        </mxCell>
        <mxCell id="X4uo6Cr84tS3N12ujo1E-101" value="" style="shape=tableRow;horizontal=0;startSize=0;swimlaneHead=0;swimlaneBody=0;fillColor=none;collapsible=0;dropTarget=0;points=[[0,0.5],[1,0.5]];portConstraint=eastwest;top=0;left=0;right=0;bottom=0;rounded=0;labelBackgroundColor=none;strokeColor=#788AA3;fontColor=#46495D;" vertex="1" parent="X4uo6Cr84tS3N12ujo1E-94">
          <mxGeometry y="90" width="180" height="30" as="geometry" />
        </mxCell>
        <mxCell id="X4uo6Cr84tS3N12ujo1E-102" value="" style="shape=partialRectangle;connectable=0;fillColor=none;top=0;left=0;bottom=0;right=0;editable=1;overflow=hidden;whiteSpace=wrap;html=1;rounded=0;labelBackgroundColor=none;strokeColor=#788AA3;fontColor=#46495D;" vertex="1" parent="X4uo6Cr84tS3N12ujo1E-101">
          <mxGeometry width="30" height="30" as="geometry">
            <mxRectangle width="30" height="30" as="alternateBounds" />
          </mxGeometry>
        </mxCell>
        <mxCell id="X4uo6Cr84tS3N12ujo1E-103" value="staff_IcNum" style="shape=partialRectangle;connectable=0;fillColor=none;top=0;left=0;bottom=0;right=0;align=left;spacingLeft=6;overflow=hidden;whiteSpace=wrap;html=1;rounded=0;labelBackgroundColor=none;strokeColor=#788AA3;fontColor=#000000;" vertex="1" parent="X4uo6Cr84tS3N12ujo1E-101">
          <mxGeometry x="30" width="150" height="30" as="geometry">
            <mxRectangle width="150" height="30" as="alternateBounds" />
          </mxGeometry>
        </mxCell>
        <mxCell id="X4uo6Cr84tS3N12ujo1E-104" value="" style="shape=tableRow;horizontal=0;startSize=0;swimlaneHead=0;swimlaneBody=0;fillColor=none;collapsible=0;dropTarget=0;points=[[0,0.5],[1,0.5]];portConstraint=eastwest;top=0;left=0;right=0;bottom=0;rounded=0;labelBackgroundColor=none;strokeColor=#788AA3;fontColor=#46495D;" vertex="1" parent="X4uo6Cr84tS3N12ujo1E-94">
          <mxGeometry y="120" width="180" height="30" as="geometry" />
        </mxCell>
        <mxCell id="X4uo6Cr84tS3N12ujo1E-105" value="" style="shape=partialRectangle;connectable=0;fillColor=none;top=0;left=0;bottom=0;right=0;editable=1;overflow=hidden;whiteSpace=wrap;html=1;rounded=0;labelBackgroundColor=none;strokeColor=#788AA3;fontColor=#46495D;" vertex="1" parent="X4uo6Cr84tS3N12ujo1E-104">
          <mxGeometry width="30" height="30" as="geometry">
            <mxRectangle width="30" height="30" as="alternateBounds" />
          </mxGeometry>
        </mxCell>
        <mxCell id="X4uo6Cr84tS3N12ujo1E-106" value="staff_address" style="shape=partialRectangle;connectable=0;fillColor=none;top=0;left=0;bottom=0;right=0;align=left;spacingLeft=6;overflow=hidden;whiteSpace=wrap;html=1;rounded=0;labelBackgroundColor=none;strokeColor=#788AA3;fontColor=#000000;" vertex="1" parent="X4uo6Cr84tS3N12ujo1E-104">
          <mxGeometry x="30" width="150" height="30" as="geometry">
            <mxRectangle width="150" height="30" as="alternateBounds" />
          </mxGeometry>
        </mxCell>
        <mxCell id="X4uo6Cr84tS3N12ujo1E-107" value="" style="shape=tableRow;horizontal=0;startSize=0;swimlaneHead=0;swimlaneBody=0;fillColor=none;collapsible=0;dropTarget=0;points=[[0,0.5],[1,0.5]];portConstraint=eastwest;top=0;left=0;right=0;bottom=0;rounded=0;labelBackgroundColor=none;strokeColor=#788AA3;fontColor=#46495D;" vertex="1" parent="X4uo6Cr84tS3N12ujo1E-94">
          <mxGeometry y="150" width="180" height="30" as="geometry" />
        </mxCell>
        <mxCell id="X4uo6Cr84tS3N12ujo1E-108" value="" style="shape=partialRectangle;connectable=0;fillColor=none;top=0;left=0;bottom=0;right=0;editable=1;overflow=hidden;whiteSpace=wrap;html=1;rounded=0;labelBackgroundColor=none;strokeColor=#788AA3;fontColor=#46495D;" vertex="1" parent="X4uo6Cr84tS3N12ujo1E-107">
          <mxGeometry width="30" height="30" as="geometry">
            <mxRectangle width="30" height="30" as="alternateBounds" />
          </mxGeometry>
        </mxCell>
        <mxCell id="X4uo6Cr84tS3N12ujo1E-109" value="staff_noTel" style="shape=partialRectangle;connectable=0;fillColor=none;top=0;left=0;bottom=0;right=0;align=left;spacingLeft=6;overflow=hidden;whiteSpace=wrap;html=1;rounded=0;labelBackgroundColor=none;strokeColor=#788AA3;fontColor=#000000;" vertex="1" parent="X4uo6Cr84tS3N12ujo1E-107">
          <mxGeometry x="30" width="150" height="30" as="geometry">
            <mxRectangle width="150" height="30" as="alternateBounds" />
          </mxGeometry>
        </mxCell>
        <mxCell id="X4uo6Cr84tS3N12ujo1E-113" value="Treatment" style="shape=table;startSize=30;container=1;collapsible=1;childLayout=tableLayout;fixedRows=1;rowLines=0;fontStyle=1;align=center;resizeLast=1;html=1;rounded=1;labelBackgroundColor=none;fillColor=#B2C9AB;strokeColor=#788AA3;fontColor=#000000;" vertex="1" parent="1">
          <mxGeometry x="140" y="360" width="180" height="120" as="geometry" />
        </mxCell>
        <mxCell id="X4uo6Cr84tS3N12ujo1E-117" value="" style="shape=tableRow;horizontal=0;startSize=0;swimlaneHead=0;swimlaneBody=0;fillColor=none;collapsible=0;dropTarget=0;points=[[0,0.5],[1,0.5]];portConstraint=eastwest;top=0;left=0;right=0;bottom=0;rounded=0;labelBackgroundColor=none;strokeColor=#788AA3;fontColor=#46495D;" vertex="1" parent="X4uo6Cr84tS3N12ujo1E-113">
          <mxGeometry y="30" width="180" height="30" as="geometry" />
        </mxCell>
        <mxCell id="X4uo6Cr84tS3N12ujo1E-118" value="PK.FK1" style="shape=partialRectangle;connectable=0;fillColor=none;top=0;left=0;bottom=0;right=0;editable=1;overflow=hidden;whiteSpace=wrap;html=1;rounded=0;labelBackgroundColor=none;strokeColor=#788AA3;fontColor=#000000;" vertex="1" parent="X4uo6Cr84tS3N12ujo1E-117">
          <mxGeometry width="50" height="30" as="geometry">
            <mxRectangle width="50" height="30" as="alternateBounds" />
          </mxGeometry>
        </mxCell>
        <mxCell id="X4uo6Cr84tS3N12ujo1E-119" value="turn_no" style="shape=partialRectangle;connectable=0;fillColor=none;top=0;left=0;bottom=0;right=0;align=left;spacingLeft=6;overflow=hidden;whiteSpace=wrap;html=1;rounded=0;labelBackgroundColor=none;strokeColor=#788AA3;fontColor=#000000;" vertex="1" parent="X4uo6Cr84tS3N12ujo1E-117">
          <mxGeometry x="50" width="130" height="30" as="geometry">
            <mxRectangle width="130" height="30" as="alternateBounds" />
          </mxGeometry>
        </mxCell>
        <mxCell id="X4uo6Cr84tS3N12ujo1E-132" value="" style="shape=tableRow;horizontal=0;startSize=0;swimlaneHead=0;swimlaneBody=0;fillColor=none;collapsible=0;dropTarget=0;points=[[0,0.5],[1,0.5]];portConstraint=eastwest;top=0;left=0;right=0;bottom=0;rounded=0;labelBackgroundColor=none;strokeColor=#788AA3;fontColor=#46495D;" vertex="1" parent="X4uo6Cr84tS3N12ujo1E-113">
          <mxGeometry y="60" width="180" height="30" as="geometry" />
        </mxCell>
        <mxCell id="X4uo6Cr84tS3N12ujo1E-133" value="" style="shape=partialRectangle;connectable=0;fillColor=none;top=0;left=0;bottom=0;right=0;editable=1;overflow=hidden;whiteSpace=wrap;html=1;rounded=0;labelBackgroundColor=none;strokeColor=#788AA3;fontColor=#46495D;" vertex="1" parent="X4uo6Cr84tS3N12ujo1E-132">
          <mxGeometry width="50" height="30" as="geometry">
            <mxRectangle width="50" height="30" as="alternateBounds" />
          </mxGeometry>
        </mxCell>
        <mxCell id="X4uo6Cr84tS3N12ujo1E-134" value="treatment_type" style="shape=partialRectangle;connectable=0;fillColor=none;top=0;left=0;bottom=0;right=0;align=left;spacingLeft=6;overflow=hidden;whiteSpace=wrap;html=1;rounded=0;labelBackgroundColor=none;strokeColor=#788AA3;fontColor=#020203;" vertex="1" parent="X4uo6Cr84tS3N12ujo1E-132">
          <mxGeometry x="50" width="130" height="30" as="geometry">
            <mxRectangle width="130" height="30" as="alternateBounds" />
          </mxGeometry>
        </mxCell>
        <mxCell id="X4uo6Cr84tS3N12ujo1E-135" value="" style="shape=tableRow;horizontal=0;startSize=0;swimlaneHead=0;swimlaneBody=0;fillColor=none;collapsible=0;dropTarget=0;points=[[0,0.5],[1,0.5]];portConstraint=eastwest;top=0;left=0;right=0;bottom=0;rounded=0;labelBackgroundColor=none;strokeColor=#788AA3;fontColor=#46495D;" vertex="1" parent="X4uo6Cr84tS3N12ujo1E-113">
          <mxGeometry y="90" width="180" height="30" as="geometry" />
        </mxCell>
        <mxCell id="X4uo6Cr84tS3N12ujo1E-136" value="" style="shape=partialRectangle;connectable=0;fillColor=none;top=0;left=0;bottom=0;right=0;editable=1;overflow=hidden;whiteSpace=wrap;html=1;rounded=0;labelBackgroundColor=none;strokeColor=#788AA3;fontColor=#46495D;" vertex="1" parent="X4uo6Cr84tS3N12ujo1E-135">
          <mxGeometry width="50" height="30" as="geometry">
            <mxRectangle width="50" height="30" as="alternateBounds" />
          </mxGeometry>
        </mxCell>
        <mxCell id="X4uo6Cr84tS3N12ujo1E-137" value="medicine" style="shape=partialRectangle;connectable=0;fillColor=none;top=0;left=0;bottom=0;right=0;align=left;spacingLeft=6;overflow=hidden;whiteSpace=wrap;html=1;rounded=0;labelBackgroundColor=none;strokeColor=#788AA3;fontColor=#0A0A0D;" vertex="1" parent="X4uo6Cr84tS3N12ujo1E-135">
          <mxGeometry x="50" width="130" height="30" as="geometry">
            <mxRectangle width="130" height="30" as="alternateBounds" />
          </mxGeometry>
        </mxCell>
        <mxCell id="X4uo6Cr84tS3N12ujo1E-141" value="" style="edgeStyle=none;orthogonalLoop=1;jettySize=auto;html=1;rounded=0;strokeColor=#788AA3;fontColor=#46495D;fillColor=#B2C9AB;endArrow=ERmany;endFill=0;startArrow=ERmany;startFill=0;entryX=0;entryY=0.5;entryDx=0;entryDy=0;exitX=1;exitY=0.5;exitDx=0;exitDy=0;" edge="1" parent="1" source="X4uo6Cr84tS3N12ujo1E-132" target="X4uo6Cr84tS3N12ujo1E-64">
          <mxGeometry width="80" relative="1" as="geometry">
            <mxPoint x="360" y="320" as="sourcePoint" />
            <mxPoint x="465" y="160" as="targetPoint" />
            <Array as="points" />
          </mxGeometry>
        </mxCell>
        <mxCell id="X4uo6Cr84tS3N12ujo1E-142" value="" style="edgeStyle=none;orthogonalLoop=1;jettySize=auto;html=1;rounded=1;strokeColor=#788AA3;fontColor=#46495D;fillColor=#B2C9AB;startArrow=ERoneToMany;startFill=0;endArrow=ERmandOne;endFill=0;exitX=1;exitY=0.5;exitDx=0;exitDy=0;entryX=0;entryY=0.5;entryDx=0;entryDy=0;curved=0;" edge="1" parent="1" source="X4uo6Cr84tS3N12ujo1E-29" target="X4uo6Cr84tS3N12ujo1E-54">
          <mxGeometry width="80" relative="1" as="geometry">
            <mxPoint x="350" y="310" as="sourcePoint" />
            <mxPoint x="430" y="310" as="targetPoint" />
            <Array as="points">
              <mxPoint x="360" y="155" />
              <mxPoint x="460" y="245" />
            </Array>
          </mxGeometry>
        </mxCell>
        <mxCell id="X4uo6Cr84tS3N12ujo1E-143" value="" style="edgeStyle=none;orthogonalLoop=1;jettySize=auto;html=1;rounded=1;strokeColor=#788AA3;fontColor=#46495D;fillColor=#B2C9AB;startArrow=ERoneToMany;startFill=0;endArrow=ERmandOne;endFill=0;exitX=1;exitY=0.5;exitDx=0;exitDy=0;entryX=1;entryY=0.5;entryDx=0;entryDy=0;curved=0;" edge="1" parent="1" source="X4uo6Cr84tS3N12ujo1E-79" target="X4uo6Cr84tS3N12ujo1E-42">
          <mxGeometry width="80" relative="1" as="geometry">
            <mxPoint x="620" y="370" as="sourcePoint" />
            <mxPoint x="730" y="220" as="targetPoint" />
            <Array as="points">
              <mxPoint x="760" y="585" />
              <mxPoint x="760" y="125" />
            </Array>
          </mxGeometry>
        </mxCell>
        <mxCell id="X4uo6Cr84tS3N12ujo1E-144" value="" style="edgeStyle=none;orthogonalLoop=1;jettySize=auto;html=1;rounded=1;strokeColor=#788AA3;fontColor=#46495D;fillColor=#B2C9AB;endArrow=ERoneToMany;endFill=0;startArrow=ERmandOne;startFill=0;entryX=0;entryY=0.5;entryDx=0;entryDy=0;exitX=0;exitY=0.5;exitDx=0;exitDy=0;curved=0;" edge="1" parent="1" source="X4uo6Cr84tS3N12ujo1E-26" target="X4uo6Cr84tS3N12ujo1E-79">
          <mxGeometry width="80" relative="1" as="geometry">
            <mxPoint x="70" y="170" as="sourcePoint" />
            <mxPoint x="440" y="535" as="targetPoint" />
            <Array as="points">
              <mxPoint x="80" y="125" />
              <mxPoint x="80" y="585" />
            </Array>
          </mxGeometry>
        </mxCell>
        <mxCell id="X4uo6Cr84tS3N12ujo1E-145" value="" style="edgeStyle=none;orthogonalLoop=1;jettySize=auto;html=1;rounded=0;strokeColor=#788AA3;fontColor=#46495D;fillColor=#B2C9AB;endArrow=ERoneToMany;endFill=0;startArrow=ERmandOne;startFill=0;exitX=1;exitY=0.5;exitDx=0;exitDy=0;entryX=0;entryY=0.5;entryDx=0;entryDy=0;curved=1;fontFamily=Helvetica;" edge="1" parent="1" source="X4uo6Cr84tS3N12ujo1E-95" target="X4uo6Cr84tS3N12ujo1E-85">
          <mxGeometry width="80" relative="1" as="geometry">
            <mxPoint x="450" y="650" as="sourcePoint" />
            <mxPoint x="530" y="650" as="targetPoint" />
            <Array as="points">
              <mxPoint x="360" y="725" />
              <mxPoint x="440" y="645" />
            </Array>
          </mxGeometry>
        </mxCell>
        <mxCell id="X4uo6Cr84tS3N12ujo1E-147" value="register" style="text;html=1;align=center;verticalAlign=middle;resizable=0;points=[];autosize=1;strokeColor=none;fillColor=none;" vertex="1" parent="1">
          <mxGeometry x="395" y="690" width="60" height="30" as="geometry" />
        </mxCell>
        <mxCell id="X4uo6Cr84tS3N12ujo1E-148" value="have" style="text;html=1;align=center;verticalAlign=middle;resizable=0;points=[];autosize=1;strokeColor=none;fillColor=none;" vertex="1" parent="1">
          <mxGeometry x="390" y="440" width="50" height="30" as="geometry" />
        </mxCell>
        <mxCell id="X4uo6Cr84tS3N12ujo1E-149" value="assist" style="text;html=1;align=center;verticalAlign=middle;resizable=0;points=[];autosize=1;strokeColor=none;fillColor=none;rotation=45;" vertex="1" parent="1">
          <mxGeometry x="400" y="170" width="50" height="30" as="geometry" />
        </mxCell>
        <mxCell id="X4uo6Cr84tS3N12ujo1E-150" value="treats" style="text;html=1;align=center;verticalAlign=middle;resizable=0;points=[];autosize=1;strokeColor=none;fillColor=none;" vertex="1" parent="1">
          <mxGeometry x="770" y="320" width="50" height="30" as="geometry" />
        </mxCell>
        <mxCell id="X4uo6Cr84tS3N12ujo1E-151" value="serve" style="text;html=1;align=center;verticalAlign=middle;resizable=0;points=[];autosize=1;strokeColor=none;fillColor=none;" vertex="1" parent="1">
          <mxGeometry x="20" y="320" width="50" height="30" as="geometry" />
        </mxCell>
      </root>
    </mxGraphModel>
  </diagram>
</mxfile>
